<?xml version="1.0" encoding="UTF-8" standalone="no"?>
<!DOCTYPE svg PUBLIC "-//W3C//DTD SVG 1.1//EN" "http://www.w3.org/Graphics/SVG/1.1/DTD/svg11.dtd">
<svg width="100%" height="100%" viewBox="0 0 95 95" version="1.1" xmlns="http://www.w3.org/2000/svg" xmlns:xlink="http://www.w3.org/1999/xlink" xml:space="preserve" xmlns:serif="http://www.serif.com/" style="fill-rule:evenodd;clip-rule:evenodd;stroke-linejoin:round;stroke-miterlimit:2;">
    <g transform="matrix(1.11765,0,0,1.21795,-5.58824,-14.6154)">
        <path d="M47.5,27.6C56.447,12 74.342,12 83.29,19.8C92.237,27.6 92.237,43.2 83.29,58.8C77.026,70.5 60.921,82.2 47.5,90C34.079,82.2 17.974,70.5 11.711,58.8C2.763,43.2 2.763,27.6 11.711,19.8C20.658,12 38.553,12 47.5,27.6Z" style="fill:rgb(255,12,255);"/>
    </g>
    <g transform="matrix(0.860201,0,0,1,-11.4966,15)">
        <g transform="matrix(48,0,0,48,28.4403,45.1698)">
            <path d="M0.074,-0L0.074,-0.716L0.217,-0.716L0.386,-0.209C0.402,-0.162 0.413,-0.126 0.42,-0.103C0.429,-0.129 0.441,-0.167 0.458,-0.218L0.63,-0.716L0.757,-0.716L0.757,-0L0.666,-0L0.666,-0.599L0.458,-0L0.373,-0L0.166,-0.609L0.166,-0L0.074,-0Z" style="fill:rgb(238,238,238);fill-rule:nonzero;"/>
        </g>
        <g transform="matrix(48,0,0,48,68.4246,45.1698)">
            <path d="M0.066,-0.615L0.066,-0.716L0.154,-0.716L0.154,-0.615L0.066,-0.615ZM0.066,-0L0.066,-0.519L0.154,-0.519L0.154,-0L0.066,-0Z" style="fill:rgb(238,238,238);fill-rule:nonzero;"/>
        </g>
        <g transform="matrix(48,0,0,48,79.0887,45.1698)">
            <path d="M0.402,-0L0.402,-0.065C0.369,-0.014 0.321,0.012 0.257,0.012C0.216,0.012 0.178,0 0.143,-0.022C0.109,-0.045 0.082,-0.077 0.063,-0.118C0.044,-0.159 0.034,-0.206 0.034,-0.259C0.034,-0.311 0.043,-0.358 0.06,-0.4C0.077,-0.442 0.103,-0.474 0.138,-0.497C0.172,-0.519 0.211,-0.53 0.253,-0.53C0.285,-0.53 0.313,-0.524 0.337,-0.51C0.361,-0.497 0.381,-0.48 0.396,-0.459L0.396,-0.716L0.484,-0.716L0.484,-0L0.402,-0ZM0.125,-0.259C0.125,-0.192 0.139,-0.143 0.167,-0.11C0.194,-0.077 0.228,-0.061 0.266,-0.061C0.304,-0.061 0.337,-0.076 0.364,-0.108C0.39,-0.139 0.404,-0.187 0.404,-0.251C0.404,-0.322 0.39,-0.375 0.363,-0.408C0.335,-0.441 0.302,-0.458 0.262,-0.458C0.223,-0.458 0.19,-0.442 0.164,-0.41C0.138,-0.378 0.125,-0.327 0.125,-0.259Z" style="fill:rgb(238,238,238);fill-rule:nonzero;"/>
        </g>
    </g>
</svg>
